<mxfile host="Electron" agent="Mozilla/5.0 (Windows NT 10.0; Win64; x64) AppleWebKit/537.36 (KHTML, like Gecko) draw.io/26.0.4 Chrome/128.0.6613.186 Electron/32.2.5 Safari/537.36" version="26.0.4">
  <diagram name="Страница — 1" id="c1legxwMAwHrI6p4StLz">
    <mxGraphModel dx="1434" dy="836" grid="1" gridSize="10" guides="1" tooltips="1" connect="1" arrows="1" fold="1" page="1" pageScale="1" pageWidth="827" pageHeight="1169" math="0" shadow="0">
      <root>
        <mxCell id="0" />
        <mxCell id="1" parent="0" />
        <mxCell id="ic-WmlkwY3e7yQ9_OqRm-5" value="Робот" style="rounded=0;whiteSpace=wrap;html=1;dashed=1;fontSize=16;verticalAlign=bottom;align=left;labelPosition=center;verticalLabelPosition=top;" parent="1" vertex="1">
          <mxGeometry y="310" width="470" height="350" as="geometry" />
        </mxCell>
        <mxCell id="35gUvf7kPRrFlk3SorZ7-7" value="Модуль" style="rounded=0;whiteSpace=wrap;html=1;dashed=1;align=left;verticalAlign=bottom;labelPosition=center;verticalLabelPosition=top;fontSize=16;" vertex="1" parent="1">
          <mxGeometry x="40" y="350" width="160" height="290" as="geometry" />
        </mxCell>
        <mxCell id="ic-WmlkwY3e7yQ9_OqRm-11" style="edgeStyle=orthogonalEdgeStyle;rounded=0;orthogonalLoop=1;jettySize=auto;html=1;entryX=0;entryY=0.5;entryDx=0;entryDy=0;" parent="1" source="ic-WmlkwY3e7yQ9_OqRm-1" target="ic-WmlkwY3e7yQ9_OqRm-10" edge="1">
          <mxGeometry relative="1" as="geometry" />
        </mxCell>
        <mxCell id="ic-WmlkwY3e7yQ9_OqRm-1" value="MQTT Broker&lt;div&gt;(Сервер)&lt;/div&gt;" style="ellipse;whiteSpace=wrap;html=1;aspect=fixed;fontSize=16;" parent="1" vertex="1">
          <mxGeometry x="510" y="390" width="180" height="180" as="geometry" />
        </mxCell>
        <mxCell id="ic-WmlkwY3e7yQ9_OqRm-3" value="Датчик качества воздуха" style="ellipse;whiteSpace=wrap;html=1;aspect=fixed;fontSize=16;" parent="1" vertex="1">
          <mxGeometry x="50" y="360" width="130" height="130" as="geometry" />
        </mxCell>
        <mxCell id="ic-WmlkwY3e7yQ9_OqRm-4" value="Датчик температуры" style="ellipse;whiteSpace=wrap;html=1;aspect=fixed;fontSize=16;" parent="1" vertex="1">
          <mxGeometry x="50" y="500" width="130" height="130" as="geometry" />
        </mxCell>
        <mxCell id="ic-WmlkwY3e7yQ9_OqRm-10" value="Клиент&lt;div&gt;(Пользователь)&lt;/div&gt;" style="ellipse;whiteSpace=wrap;html=1;aspect=fixed;fontSize=16;" parent="1" vertex="1">
          <mxGeometry x="760" y="410" width="140" height="140" as="geometry" />
        </mxCell>
        <mxCell id="35gUvf7kPRrFlk3SorZ7-2" value="Основная часть робота" style="ellipse;whiteSpace=wrap;html=1;aspect=fixed;fontSize=16;" vertex="1" parent="1">
          <mxGeometry x="260" y="400" width="170" height="170" as="geometry" />
        </mxCell>
        <mxCell id="35gUvf7kPRrFlk3SorZ7-5" value="" style="endArrow=classic;html=1;rounded=0;exitX=1;exitY=0.5;exitDx=0;exitDy=0;entryX=0;entryY=0.5;entryDx=0;entryDy=0;" edge="1" parent="1" source="ic-WmlkwY3e7yQ9_OqRm-4" target="35gUvf7kPRrFlk3SorZ7-2">
          <mxGeometry width="50" height="50" relative="1" as="geometry">
            <mxPoint x="240" y="530" as="sourcePoint" />
            <mxPoint x="290" y="480" as="targetPoint" />
          </mxGeometry>
        </mxCell>
        <mxCell id="35gUvf7kPRrFlk3SorZ7-6" value="" style="endArrow=classic;html=1;rounded=0;exitX=1;exitY=0.5;exitDx=0;exitDy=0;entryX=0;entryY=0.5;entryDx=0;entryDy=0;" edge="1" parent="1" source="ic-WmlkwY3e7yQ9_OqRm-3" target="35gUvf7kPRrFlk3SorZ7-2">
          <mxGeometry width="50" height="50" relative="1" as="geometry">
            <mxPoint x="380" y="470" as="sourcePoint" />
            <mxPoint x="430" y="420" as="targetPoint" />
          </mxGeometry>
        </mxCell>
        <mxCell id="35gUvf7kPRrFlk3SorZ7-8" value="" style="endArrow=classic;startArrow=classic;html=1;rounded=0;entryX=0;entryY=0.5;entryDx=0;entryDy=0;" edge="1" parent="1" target="ic-WmlkwY3e7yQ9_OqRm-1">
          <mxGeometry width="50" height="50" relative="1" as="geometry">
            <mxPoint x="430" y="480" as="sourcePoint" />
            <mxPoint x="360" y="430" as="targetPoint" />
          </mxGeometry>
        </mxCell>
      </root>
    </mxGraphModel>
  </diagram>
</mxfile>
